<?xml version="1.0" standalone="no"?>
<!DOCTYPE svg PUBLIC "-//W3C//DTD SVG 20010904//EN"
 "http://www.w3.org/TR/2001/REC-SVG-20010904/DTD/svg10.dtd">
<svg version="1.0" xmlns="http://www.w3.org/2000/svg"
 width="293.000000pt" height="262.000000pt" viewBox="0 0 293.000000 262.000000"
 preserveAspectRatio="xMidYMid meet">

<g transform="translate(0.000000,262.000000) scale(0.100000,-0.100000)"
fill="#000000" stroke="none">
<path d="M0 1310 l0 -1310 1465 0 1465 0 0 1310 0 1310 -1465 0 -1465 0 0
-1310z m1936 836 c244 -65 387 -305 289 -485 -37 -66 -91 -112 -207 -172 -99
-51 -99 -52 -13 -79 76 -24 194 -92 244 -141 60 -59 100 -138 108 -210 4 -44
-1 -70 -27 -141 -17 -48 -44 -106 -59 -128 -54 -80 -155 -131 -287 -145 l-69
-8 46 44 c68 64 99 179 99 364 0 192 -60 313 -182 370 l-49 23 46 55 c152 187
151 404 -2 584 -29 34 -53 67 -53 73 0 14 55 12 116 -4z m-895 -73 c87 -202
568 -1417 563 -1422 -3 -3 -65 -6 -137 -6 l-132 0 -46 115 c-25 63 -124 313
-219 555 -95 242 -174 442 -176 444 -2 2 -10 -2 -19 -9 -8 -7 -15 -10 -15 -6
0 6 139 356 147 368 8 14 14 8 34 -39z m-122 -822 c11 -7 7 -13 -16 -25 -17
-8 -33 -23 -36 -33 -19 -65 -142 -375 -162 -409 -48 -82 -130 -135 -239 -155
-52 -10 -72 -10 -86 -1 -11 6 -27 9 -37 6 -17 -5 -17 -5 -1 8 9 7 30 20 46 29
20 12 32 28 37 50 10 46 89 248 132 334 59 120 131 178 241 194 79 12 105 12
121 2z"/>
</g>
</svg>
